REM MD5 59ebbe7ed20a308a4957aa21044e11e0
FILE "Aitakute... - Your Smiles in My Heart (Japan) (Disc 2).bin" BINARY
  TRACK 01 MODE2/2352
    FLAGS DCP
    INDEX 01 00:00:00
  TRACK 02 AUDIO
    FLAGS DCP
    INDEX 00 68:02:01
    INDEX 01 68:04:01
  TRACK 03 AUDIO
    FLAGS DCP
    INDEX 00 68:34:01
    INDEX 01 68:36:01
  TRACK 04 AUDIO
    FLAGS DCP
    INDEX 00 69:06:01
    INDEX 01 69:08:01
  TRACK 05 AUDIO
    FLAGS DCP
    INDEX 00 69:37:71
    INDEX 01 69:39:71
REM LEADOUT 70:09:71
